<?xml version="1.0" standalone="no"?>
<!DOCTYPE svg PUBLIC "-//W3C//DTD SVG 1.1//EN" "http://www.w3.org/Graphics/SVG/1.1/DTD/svg11.dtd" >
<svg xmlns="http://www.w3.org/2000/svg">
<metadata></metadata>
<defs>
<font id="kelson_sans_ruregular" horiz-adv-x="1101" >
<font-face units-per-em="2048" ascent="1536" descent="-512" />
<missing-glyph horiz-adv-x="514" />
<glyph unicode="&#xd;" horiz-adv-x="681" />
<glyph unicode=" "  horiz-adv-x="514" />
<glyph unicode="&#x09;" horiz-adv-x="514" />
<glyph unicode="&#xa0;" horiz-adv-x="514" />
<glyph unicode="!" horiz-adv-x="466" d="M123 100q0 53 37 84t81 32t80.5 -29.5t36.5 -86.5q0 -70 -59 -99.5t-117.5 -2t-58.5 101.5zM143 340v1243h195v-1243h-195z" />
<glyph unicode="&#x22;" horiz-adv-x="542" d="M72 1581h161l-6 -375h-149zM332 1581h162l-7 -375h-149z" />
<glyph unicode="#" horiz-adv-x="1497" d="M66 446l43 172h251l68 275h-254l43 172h254l127 518h170l-127 -518h358l127 518h170l-127 -518h277l-43 -172h-277l-67 -275h276l-43 -172h-274l-111 -450h-172l111 450h-359l-110 -450h-170l110 450h-251zM530 618h359l67 275h-358z" />
<glyph unicode="$" horiz-adv-x="1130" d="M90 418h211q8 -111 69.5 -173.5t202.5 -62.5h39q152 0 204 67.5t52 217.5q0 90 -23.5 145.5t-83 82t-101.5 33.5t-138 15q-14 2 -20 2q-76 6 -140.5 28t-125 67t-95.5 123.5t-35 187.5q0 205 93.5 315.5t296.5 126.5v199h182v-203q330 -43 348 -399h-203q-8 109 -61 165 t-191 56q-154 0 -208 -63.5t-54 -194.5q0 -33 6.5 -59.5t14.5 -47t26.5 -38t31.5 -28.5t42 -20.5t44 -14.5t53 -10t53.5 -7t59.5 -6t58 -7q371 -37 371 -438q0 -240 -92 -354.5t-299 -128.5v-209h-182v211q-387 35 -406 422z" />
<glyph unicode="%" horiz-adv-x="1611" d="M61 1112v176q0 303 299 303q156 0 230 -73.5t74 -229.5v-176q0 -156 -74 -229.5t-230 -73.5q-154 0 -226.5 73.5t-72.5 229.5zM225 1120q0 -82 29.5 -122t105.5 -40q78 0 108 40t30 122v164q0 82 -29 120t-109 38q-76 0 -105.5 -39t-29.5 -119v-164zM473 -29l465 1624 h147l-460 -1624h-152zM928 303v176q0 303 299 303q156 0 229.5 -73.5t73.5 -229.5v-176q0 -156 -73.5 -229.5t-229.5 -73.5q-154 0 -226.5 73.5t-72.5 229.5zM1092 311q0 -82 29.5 -121.5t105.5 -39.5q78 0 107.5 39.5t29.5 121.5v164q0 82 -28.5 120t-108.5 38 q-76 0 -105.5 -39t-29.5 -119v-164z" />
<glyph unicode="&#x26;" horiz-adv-x="1251" d="M109 442q0 268 245 402q-184 121 -184 330q0 190 115.5 309t302.5 119q201 0 309.5 -108t95.5 -306h-178q12 236 -227 235q-96 0 -162 -67.5t-66 -179.5q0 -96 66 -170t162 -74h604v-172h-191v-338q0 -242 160 -242l-4 -203q-102 0 -160.5 36t-95.5 128 q-115 -166 -315 -166q-225 0 -352.5 113t-124.5 354zM301 434q0 -82 27.5 -140t72.5 -87t90.5 -40t94.5 -11q96 0 160.5 79.5t64.5 188.5v336h-225q-119 0 -202 -91t-83 -235z" />
<glyph unicode="'" horiz-adv-x="301" d="M72 1581h161l-6 -375h-149z" />
<glyph unicode="(" horiz-adv-x="528" d="M119 147v1053q0 414 362 414v-201q-98 0 -131 -53t-33 -162v-1048q0 -109 33 -162.5t131 -53.5v-200q-362 0 -362 413z" />
<glyph unicode=")" horiz-adv-x="546" d="M63 -66q98 0 131 53.5t33 162.5v1048q0 109 -32.5 162t-131.5 53v201q362 0 363 -414v-1053q0 -414 -363 -413v200z" />
<glyph unicode="*" horiz-adv-x="655" d="M59 1436l162 161l92 -151l45 -4l95 155l161 -159l-153 -95l-2 -43l155 -96l-161 -162l-95 154l-43 2l-94 -154l-160 160l150 94l2 43z" />
<glyph unicode="+" horiz-adv-x="927" d="M68 659v160h301v307h178v-307h303v-160h-303v-315h-178v315h-301z" />
<glyph unicode="," horiz-adv-x="387" d="M0 -211q80 59 101.5 129t21.5 197h170q0 -172 -52.5 -265t-179.5 -161z" />
<glyph unicode="-" horiz-adv-x="1009" d="M125 526v179h770v-179h-770z" />
<glyph unicode="." horiz-adv-x="411" d="M102 100q0 53 37 84t81 32t81 -29.5t37 -86.5q0 -70 -59.5 -99.5t-118 -2t-58.5 101.5z" />
<glyph unicode="/" horiz-adv-x="761" d="M82 -2l428 1579h164l-428 -1579h-164z" />
<glyph unicode="0" horiz-adv-x="1056" d="M106 436v715q0 430 435 430q418 0 417 -430v-715q0 -244 -98 -350t-319 -106q-231 0 -333 106.5t-102 349.5zM301 436q0 -160 53.5 -219t186.5 -59q115 0 169 61.5t54 216.5v715q0 154 -53.5 206t-169.5 52q-123 0 -181.5 -53t-58.5 -205v-715z" />
<glyph unicode="1" horiz-adv-x="776" d="M49 0v166h256v1241h-201v174h396v-1415h243v-166h-694z" />
<glyph unicode="2" horiz-adv-x="1052" d="M100 1157q0 223 116 332.5t323 109.5q203 0 315.5 -101t112.5 -306q0 -115 -37 -198t-95.5 -129t-129 -81.5t-142 -70.5t-130 -80t-95.5 -126t-37 -194v-120h653v-193h-852v311q0 135 37 238.5t95.5 163t130 104.5t143.5 79t130 69.5t95 92t37 132.5q0 117 -58.5 174 t-181.5 57q-236 0 -235 -264h-195z" />
<glyph unicode="3" horiz-adv-x="1060" d="M70 446h186q0 -141 57.5 -205.5t184.5 -64.5q129 0 193.5 67.5t64.5 221.5q0 299 -273 299h-161v92l329 553h-528v172h833v-22l-370 -627q190 -23 282.5 -134.5t92.5 -330.5q0 -225 -117 -350t-344 -125q-231 0 -330.5 110.5t-99.5 343.5z" />
<glyph unicode="4" horiz-adv-x="1120" d="M-4 500l684 1083h182v-1063h139v-178h-139v-342h-194v342h-643zM223 520h445v719z" />
<glyph unicode="5" horiz-adv-x="1062" d="M82 467h192q0 -293 248 -293q264 0 264 318v55q0 174 -51 232.5t-198 58.5h-428v741h821v-182h-631v-375h242q244 0 342 -107.5t98 -363.5v-62q0 -254 -124 -378.5t-335 -124.5t-325.5 111.5t-114.5 369.5z" />
<glyph unicode="6" horiz-adv-x="1118" d="M113 436v291q0 268 137 489.5t352 366.5h258l4 -14q-350 -242 -456 -449q94 25 210 25q184 0 288 -103.5t104 -314.5v-291q0 -246 -103.5 -351t-345.5 -105t-345 105t-103 351zM307 436q0 -158 58.5 -214t195.5 -56t195.5 56.5t58.5 213.5v291q0 143 -58.5 196.5 t-195.5 53.5t-195.5 -53.5t-58.5 -196.5v-291z" />
<glyph unicode="7" horiz-adv-x="921" d="M27 1397v184h852v-47l-533 -1534h-211l492 1397h-600z" />
<glyph unicode="8" horiz-adv-x="1122" d="M82 471q0 176 44 269.5t136 144.5q-150 96 -149 309q0 195 117.5 304.5t320.5 109.5q209 0 320.5 -118t111.5 -300q0 -195 -149 -297q98 -53 142 -143.5t44 -268.5q0 -258 -115.5 -378.5t-353.5 -120.5q-240 0 -354.5 118.5t-114.5 370.5zM299 477q0 -158 55.5 -233.5 t196.5 -75.5t196.5 75.5t55.5 233.5q0 160 -55.5 243t-196.5 85q-141 -2 -196.5 -85t-55.5 -243zM307 1188q0 -100 66.5 -156.5t175.5 -56.5q233 0 233 213q0 231 -231 231q-121 0 -182.5 -61t-61.5 -170z" />
<glyph unicode="9" horiz-adv-x="1118" d="M113 856v291q0 246 103 351.5t345 105.5t345.5 -105.5t103.5 -351.5v-291q0 -270 -131 -491.5t-344 -364.5h-265l-4 14q338 233 449 449q-94 -25 -211 -25q-184 0 -287.5 103.5t-103.5 314.5zM307 856q0 -143 58.5 -196.5t195.5 -53.5t195.5 53.5t58.5 196.5v291 q0 158 -58.5 214t-195.5 56t-195.5 -56t-58.5 -214v-291z" />
<glyph unicode=":" horiz-adv-x="428" d="M102 100q0 53 37 84t81 32t81 -29.5t37 -86.5q0 -70 -59.5 -99.5t-118 -2t-58.5 101.5zM102 870q0 53 37 84t81 32t81 -29.5t37 -86.5q0 -70 -59.5 -99.5t-118 -2t-58.5 101.5z" />
<glyph unicode=";" horiz-adv-x="456" d="M29 -211q80 59 101.5 129t21.5 197h170q0 -172 -52.5 -265t-179.5 -161zM117 870q0 53 36.5 84t81 32t81 -29.5t36.5 -86.5q0 -70 -59.5 -99.5t-117.5 -2t-58 101.5z" />
<glyph unicode="&#x3c;" horiz-adv-x="786" d="M102 618v58l449 420l106 -115l-360 -334l367 -332l-113 -116z" />
<glyph unicode="=" horiz-adv-x="1167" d="M160 348v158h848v-158h-848zM160 780v158h848v-158h-848z" />
<glyph unicode="&#x3e;" horiz-adv-x="790" d="M127 309l367 338l-363 338l107 111l450 -420v-58l-450 -419z" />
<glyph unicode="?" horiz-adv-x="1003" d="M61 1190q0 102 14.5 172t56.5 133.5t130 95t225 31.5q414 0 414 -475v-90q0 -96 -21.5 -170t-56.5 -117t-76.5 -78t-82.5 -65.5t-76 -64.5t-56.5 -90t-21.5 -130h-184q0 96 21.5 168t54 115t73.5 76.5t82 63.5t74 64.5t54.5 92t21.5 133.5v86q-2 164 -55.5 230.5 t-174.5 66.5q-133 0 -180 -51.5t-47 -196.5h-189zM313 100q0 53 37 84t81 32t81 -29.5t37 -86.5q0 -70 -59.5 -99.5t-118 -2t-58.5 101.5z" />
<glyph unicode="@" horiz-adv-x="1398" d="M92 360v752q0 133 17.5 216t67.5 143.5t139.5 86t232.5 25.5h295q143 0 233 -25.5t141.5 -86t70 -143.5t18.5 -216v-395q0 -188 -75 -255t-200 -67q-139 0 -192 125q-27 -29 -44.5 -43t-58.5 -30.5t-92 -16.5q-119 0 -184.5 65.5t-65.5 188.5v246q0 119 85 185.5 t206 66.5h289v-477q0 -49 2 -73t18.5 -46.5t48.5 -22.5q41 0 54.5 32t13.5 105v418q0 160 -48 215.5t-208 55.5h-330q-145 0 -194 -56.5t-49 -179.5v-729q0 -123 49 -179.5t194 -56.5h525v-190h-586q-119 0 -194.5 24.5t-113.5 76t-51.5 110.5t-13.5 151zM580 727 q-1 -123 108 -123q102 0 103 139v267h-105q-106 0 -106 -113v-170z" />
<glyph unicode="A" horiz-adv-x="1073" d="M18 0l420 1575h199l418 -1575h-201l-80 293h-473l-80 -293h-203zM350 477h373l-82 336l-104 508l-107 -514z" />
<glyph unicode="B" horiz-adv-x="1173" d="M123 -2v1587h397q205 0 316.5 -110.5t111.5 -298.5q0 -182 -112 -297q129 -39 196.5 -142.5t67.5 -255.5q0 -483 -510 -483h-467zM317 934h183q129 0 189.5 70.5t60.5 171.5q0 111 -64 169t-166 58h-203v-469zM322 184h272q170 0 238.5 75t68.5 220q0 143 -78 206 t-223 63h-278v-564z" />
<glyph unicode="C" horiz-adv-x="1208" d="M121 524v537q0 139 19.5 230t73.5 164t154.5 105.5t256.5 32.5q152 0 249 -27.5t150 -89t72.5 -140t21.5 -201.5h-190q-2 154 -59.5 215t-243.5 61q-102 0 -164 -17.5t-93.5 -64.5t-41 -105.5t-9.5 -160.5v-541q0 -199 58.5 -273.5t249.5 -74.5q197 0 252 59.5t55 249.5 h186q0 -88 -5 -144t-20.5 -118.5t-48 -99.5t-87 -70t-137.5 -47t-195 -14q-115 0 -198 14t-138.5 48t-89 74t-51 106.5t-22.5 131t-5 160.5z" />
<glyph unicode="D" horiz-adv-x="1230" d="M145 0v1579h480q156 0 255 -33t152 -104.5t71.5 -161.5t18.5 -229v-521q0 -139 -19.5 -230t-73.5 -164q-55 -74 -157 -106q-97 -31 -244 -30h-18h-465zM340 186h270q111 0 174.5 16.5t94 63.5t39 101.5t8.5 160.5v525q0 106 -8.5 160.5t-39 101.5t-94 63.5t-174.5 16.5 h-270v-1209z" />
<glyph unicode="E" horiz-adv-x="1067" d="M143 0v1581h797v-172h-602v-475h545v-182h-545v-570h653v-182h-848z" />
<glyph unicode="F" horiz-adv-x="1054" d="M141 -2v1581h848v-180h-653v-484h567v-182h-567v-735h-195z" />
<glyph unicode="G" horiz-adv-x="1251" d="M117 516v549q0 139 19.5 230t73.5 164t156.5 105.5t262.5 32.5q205 0 314.5 -48t148.5 -138t43 -256h-191q-2 98 -25.5 151.5t-92 84t-197.5 30.5q-190 0 -253 -76.5t-63 -277.5v-553q0 -106 8.5 -161.5t39 -103.5t94 -65.5t174.5 -17.5q113 0 174 11t94 51t40 91.5 t7 155.5v215h-307v176h504v-391q0 -104 -7.5 -169.5t-36 -133.5t-82.5 -104.5t-150.5 -60t-235.5 -23.5q-160 0 -262.5 32.5t-156.5 105.5t-73.5 164t-19.5 230z" />
<glyph unicode="H" horiz-adv-x="1206" d="M143 -2v1577h199v-727h528v727h195v-1575h-195v662h-528v-664h-199z" />
<glyph unicode="I" horiz-adv-x="485" d="M143 -2v1577h199v-1577h-199z" />
<glyph unicode="J" horiz-adv-x="989" d="M16 473h185q0 -166 50 -232.5t193 -66.5q145 0 185.5 72.5t40.5 275.5v1059h196v-1057q0 -141 -16 -232t-60.5 -164t-130.5 -106.5t-219 -33.5q-246 0 -335 118.5t-89 366.5z" />
<glyph unicode="K" horiz-adv-x="1155" d="M133 0v1579h195v-696h75l471 696h230l-545 -791l588 -788h-240l-504 680h-75v-680h-195z" />
<glyph unicode="L" horiz-adv-x="1005" d="M143 0v1579h197v-1399h616v-180h-813z" />
<glyph unicode="M" horiz-adv-x="1288" d="M143 0v1581h224l278 -868l279 868h223v-1581h-195v743l29 433l-289 -887h-94l-289 887l29 -433v-743h-195z" />
<glyph unicode="N" horiz-adv-x="1167" d="M141 0v1579h185l534 -1208l-29 536v672h195v-1579h-182l-520 1135l12 -519v-616h-195z" />
<glyph unicode="O" horiz-adv-x="1271" d="M121 518v551q0 139 19.5 230.5t73.5 164t156.5 105.5t262.5 33t262 -33t156.5 -105.5t74 -164t19.5 -230.5v-551q0 -139 -19.5 -230t-74 -164t-156.5 -105.5t-262 -32.5t-262.5 32.5t-156.5 105.5t-73.5 164t-19.5 230zM317 516q0 -106 8.5 -161.5t39 -103.5t94 -65.5 t174 -17.5t174 17.5t94.5 65.5t39 103.5t8 161.5v555q0 86 -4 134t-21.5 96.5t-51 71t-92 36.5t-146.5 14t-146.5 -14t-92.5 -36.5t-51 -71t-21.5 -96.5t-4.5 -134v-555z" />
<glyph unicode="P" d="M143 -2v1581l424 2q219 0 334 -100.5t115 -329.5v-172q0 -246 -103.5 -351.5t-345.5 -105.5h-229v-524h-195zM338 709h229q137 0 195.5 56t58.5 214v172q0 152 -54.5 195t-199.5 51h-229v-688z" />
<glyph unicode="Q" horiz-adv-x="1267" d="M121 528v539q0 139 19.5 230.5t73.5 164t156.5 105t262.5 32.5t262 -32.5t156.5 -105t74 -164t19.5 -230.5v-539q0 -227 -60.5 -348t-232.5 -162q8 -119 68 -175q45 -42 140 -42q30 0 66 4v-174q-39 -3 -74 -3q-384 0 -395 368h-24q-160 0 -262.5 32.5t-156.5 105.5 t-73.5 164t-19.5 230zM317 526q0 -106 8.5 -161.5t39 -103.5t94 -65.5t174 -17.5t174 17.5t94.5 65.5t39 103.5t8 161.5v543q0 106 -8 161.5t-39 103.5t-94.5 65.5t-174 17.5t-174 -17.5t-94 -65.5t-39 -103t-8.5 -162v-543z" />
<glyph unicode="R" horiz-adv-x="1105" d="M143 -2v1583l424 2q217 0 333 -101.5t116 -330.5v-111q0 -197 -67.5 -305t-227.5 -139l342 -596h-229l-318 584h-178v-586h-195zM338 770h229q137 0 195.5 56.5t58.5 213.5v111q0 152 -54.5 195t-199.5 51h-229v-627z" />
<glyph unicode="S" horiz-adv-x="1161" d="M90 418h211q8 -111 69.5 -173.5t202.5 -62.5h39q152 0 204 67.5t52 217.5q0 90 -23.5 145.5t-83 82t-101.5 33.5t-138 15q-14 2 -20 2q-76 6 -140.5 28t-125 67t-95.5 123.5t-35 187.5q0 225 111 334.5t354 109.5q229 0 337 -102t118 -303h-203q-8 109 -61 165t-191 56 q-154 0 -208 -63.5t-54 -194.5q0 -33 6.5 -59.5t14.5 -47t26.5 -38t31.5 -28.5t42 -20.5t44 -14.5t53 -10t53.5 -7t59.5 -6t58 -7q371 -37 371 -438q0 -256 -105.5 -370.5t-349.5 -114.5h-39q-463 0 -485 426z" />
<glyph unicode="T" horiz-adv-x="882" d="M16 1391v180h850v-180h-327v-1391h-195v1391h-328z" />
<glyph unicode="U" horiz-adv-x="1232" d="M123 520v1059h196v-1061q0 -197 58.5 -272.5t234.5 -75.5t232.5 75.5t56.5 272.5v1063h197v-1061q0 -272 -107.5 -402t-378 -130t-380 130t-109.5 402z" />
<glyph unicode="V" horiz-adv-x="1071" d="M18 1581h201l158 -588l160 -694l157 696l158 586h201l-428 -1583h-179z" />
<glyph unicode="W" horiz-adv-x="1671" d="M18 1581h201l152 -668l114 -589l271 1171h151l271 -1171l114 589l152 668h201l-377 -1583h-178l-134 530l-125 568l-124 -568l-134 -530h-178z" />
<glyph unicode="X" horiz-adv-x="999" d="M18 -2l347 797l-347 786h213l131 -299l138 -354l137 352l131 301h213l-346 -786l346 -797h-213l-86 197l-182 462l-181 -460l-88 -199h-213z" />
<glyph unicode="Y" horiz-adv-x="944" d="M-4 1581h211l127 -307l139 -393l139 393l127 307h211l-381 -919v-664h-194v664z" />
<glyph unicode="Z" horiz-adv-x="962" d="M29 0l630 1409h-546v172h823l-631 -1403h608v-178h-884z" />
<glyph unicode="[" horiz-adv-x="679" d="M186 -223v1810h426v-153h-254v-1502h254v-155h-426z" />
<glyph unicode="\" horiz-adv-x="761" d="M92 1577h164l428 -1579h-164z" />
<glyph unicode="]" horiz-adv-x="698" d="M86 -61h254v1501h-254v153h426v-1810h-426v156z" />
<glyph unicode="^" horiz-adv-x="1267" d="M111 895l442 692h125l448 -692l-2 -10h-184l-324 516l-325 -516h-178z" />
<glyph unicode="_" d="M72 -18h962v-164h-962v164z" />
<glyph unicode="`" horiz-adv-x="501" d="M57 1577v6h199l109 -260v-10h-162z" />
<glyph unicode="a" horiz-adv-x="1073" d="M90 276q-2 20 -2 38q0 132 87 226q99 106 284 134q92 14 289 18v117q0 111 -50.5 167t-177.5 56q-92 0 -141 -44q-47 -42 -47 -148v-9h-191v22q1 178 93 265q98 92 292 92q205 0 311.5 -95t106.5 -306v-809h-176l-16 162q-35 -72 -118 -122t-188 -50q-328 0 -356 286z M287 301q10 -125 180 -125q275 0 285 354q-184 0 -277 -20q-190 -41 -190 -180q0 -14 2 -29z" />
<glyph unicode="b" horiz-adv-x="1122" d="M113 436v1176h196v-522q81 120 280 120h3q219 0 318.5 -115.5t99.5 -344.5v-314q0 -246 -103.5 -351t-345.5 -105t-345 105t-103 351zM307 436q0 -156 60.5 -213t193.5 -57t193.5 57.5t60.5 212.5v309q0 162 -58.5 220.5t-195.5 58.5q-119 0 -184.5 -59t-67.5 -211z" />
<glyph unicode="c" horiz-adv-x="1081" d="M102 436v340q0 436 449 436q211 0 320.5 -90t117.5 -311l-184 -2q-6 133 -66.5 178t-187.5 45q-133 0 -193.5 -51t-60.5 -205v-340q0 -156 60.5 -213t193.5 -57q135 0 193.5 47.5t60.5 192.5h184q-2 -236 -102.5 -331t-336 -95t-342 107.5t-106.5 348.5z" />
<glyph unicode="d" horiz-adv-x="1159" d="M111 426v315q0 465 405 465q106 0 174 -21.5t115 -82.5v500h196v-1602h-163l-25 158q-27 -76 -108.5 -120t-188.5 -44q-406 0 -405 432zM305 424q0 -141 56.5 -194.5t183.5 -53.5q131 4 195.5 73.5t64.5 239.5v259q0 152 -56.5 211t-189.5 59t-193.5 -62.5t-60.5 -218.5 v-313z" />
<glyph unicode="e" d="M109 426v350q0 225 113.5 326.5t328.5 101.5q442 0 442 -428v-256h-692v-90q0 -154 57.5 -208t192.5 -54q250 0 250 180h188q0 -178 -105.5 -269t-332.5 -91q-240 0 -341 99t-101 339zM301 690h506v86q0 147 -64.5 201.5t-191.5 54.5t-188.5 -53t-61.5 -203v-86z" />
<glyph unicode="f" horiz-adv-x="655" d="M121 -2v1155q0 240 130 351q109 92 286 92q33 0 69 -3v-178q-29 3 -56 3q-104 0 -162 -44q-73 -55 -73 -221v-41h256v-180h-256v-934h-194z" />
<glyph unicode="g" horiz-adv-x="1089" d="M102 406v362q0 432 406 432q106 0 186 -43t107 -121l24 152h162v-1229q0 -236 -116.5 -346.5t-325.5 -110.5q-199 0 -303.5 83t-112.5 274h186q8 -100 66.5 -139t165.5 -39q127 0 192.5 62t65.5 216v197q-25 -66 -100.5 -114t-186.5 -48q-416 0 -416 412zM297 428 q0 -135 55 -193.5t166 -58.5q135 0 205 68.5t70 244.5v232q-2 160 -64.5 226.5t-191.5 70.5q-127 0 -183.5 -53.5t-56.5 -194.5v-342z" />
<glyph unicode="h" horiz-adv-x="1105" d="M113 0v1612h196v-522q83 122 270 122h3q221 0 316 -115.5t95 -346.5v-750h-194v745q0 160 -54.5 219.5t-189.5 59.5q-123 0 -183.5 -64.5t-62.5 -205.5l-2 -754h-194z" />
<glyph unicode="i" horiz-adv-x="491" d="M129 1473q0 53 37 83.5t81 31.5h3q42 0 78 -30q37 -30 37 -85q1 -70 -59 -100q-31 -16 -62 -16q-28 0 -56 14q-58 28 -59 102zM147 0v1190h195v-1190h-195z" />
<glyph unicode="j" horiz-adv-x="495" d="M2 -213q35 -6 63.5 -2t51 16.5t35 48t12.5 95.5v1243h190v-1243q0 -188 -85 -268q-71 -67 -209 -67q-28 0 -58 3v174zM141 1473q0 53 37 83.5t81 31.5h3q42 0 78 -30q37 -30 37 -85q0 -70 -59 -100q-31 -16 -62 -16q-28 0 -56 14q-59 28 -59 102z" />
<glyph unicode="k" horiz-adv-x="1044" d="M113 0v1581h194v-864h78l371 481h237l-438 -563l479 -635h-233l-406 532h-88v-532h-194z" />
<glyph unicode="l" horiz-adv-x="518" d="M143 311v1270h191v-1268q0 -70 27.5 -95t95.5 -25v-193q-180 0 -247 63.5t-67 247.5z" />
<glyph unicode="m" horiz-adv-x="1888" d="M152 0v1198h163l15 -131q100 145 307 145q244 0 328 -147q119 147 366 147q207 0 306.5 -97t99.5 -341v-774h-197v778q0 248 -233 248q-264 0 -265 -305v-721h-196v782q0 150 -57.5 199t-180.5 49q-119 0 -189.5 -60.5t-70.5 -189.5v-780h-196z" />
<glyph unicode="n" horiz-adv-x="1193" d="M162 0v1198h174l12 -127q86 141 307 141q205 0 301.5 -99t96.5 -333v-780h-197v778q0 125 -62.5 190.5t-170.5 65.5q-117 0 -191 -65.5t-74 -188.5v-780h-196z" />
<glyph unicode="o" d="M102 436v342q0 229 116 331.5t333 102.5t332.5 -102t115.5 -332v-342q0 -244 -105 -350t-343 -106q-242 0 -345.5 105t-103.5 351zM297 436q0 -160 59.5 -223t194.5 -63q137 0 195.5 63t58.5 223v342q0 154 -60.5 207t-193.5 53t-193.5 -53t-60.5 -207v-342z" />
<glyph unicode="p" horiz-adv-x="1150" d="M135 -403v1601h164l25 -158q27 76 108.5 120t188.5 44q406 0 405 -432v-315q0 -465 -405 -465q-106 0 -174 21.5t-115 82.5v-499h-197zM332 451q0 -152 56 -211.5t189.5 -59.5t193.5 62.5t60 218.5v313q0 141 -56 194.5t-183 53.5q-131 -4 -195.5 -73.5t-64.5 -239.5 v-258z" />
<glyph unicode="q" horiz-adv-x="1126" d="M109 446v314q0 246 103 351.5t345 105.5t345.5 -105.5t103.5 -351.5v-1176h-197v522q-81 -120 -280 -120h-3q-219 0 -318 115.5t-99 344.5zM303 451q0 -162 58.5 -220.5t195.5 -58.5q119 0 184.5 59t67.5 211l2 318q0 156 -60.5 213t-193.5 57t-193.5 -57.5t-60.5 -212.5 v-309z" />
<glyph unicode="r" horiz-adv-x="712" d="M123 -2v1200h178l8 -111q45 70 140 102q55 19 115 18q43 0 89 -9v-199q-42 7 -81 7q-94 0 -160 -44q-94 -62 -95 -194v-770h-194z" />
<glyph unicode="s" horiz-adv-x="999" d="M78 371h196q14 -203 238 -203q109 0 169 51t60 139q0 41 -17 71t-39.5 45t-67 26.5t-75 14.5t-87.5 7q-367 27 -367 324q0 166 106.5 266t309.5 100q205 0 304 -91q95 -87 95 -248v-13h-186q0 176 -219 176q-215 0 -215 -190q0 -47 15 -77t49 -44t69 -19.5t90 -9.5 q20 -2 31 -2q70 -6 112.5 -13t104 -27.5t96.5 -54.5t60.5 -94.5t25.5 -144.5q0 -182 -115.5 -276t-308.5 -94q-420 0 -434 381z" />
<glyph unicode="t" horiz-adv-x="600" d="M131 330v1077l191 23v-238h206v-184h-206v-672q0 -94 49 -132q36 -28 108 -28q27 0 58 4v-180q-50 -6 -94 -6q-151 0 -221 68q-90 86 -91 268z" />
<glyph unicode="u" horiz-adv-x="1169" d="M135 418v772h197v-770q0 -125 62.5 -190.5t170.5 -65.5q117 0 190.5 65.5t73.5 188.5v772h197v-1190h-174l-12 127q-86 -141 -308 -141q-205 0 -301 99t-96 333z" />
<glyph unicode="v" horiz-adv-x="915" d="M6 1198h203l123 -399q63 -215 127 -529q74 371 127 533l123 395h202l-354 -1200h-197z" />
<glyph unicode="w" horiz-adv-x="1521" d="M16 1198h205l123 -399q25 -82 44.5 -169t42 -211t28.5 -149q55 283 119 533l110 395h143l113 -395q53 -211 117 -533q6 25 28.5 149t42 211t44.5 169l122 399h205l-344 -1200h-194l-99 350l-106 465l-109 -471l-96 -344h-195z" />
<glyph unicode="x" horiz-adv-x="972" d="M18 0l355 604l-342 590h219l112 -190l123 -238l127 240l111 188h213l-340 -588l360 -606h-219l-121 209l-133 252l-133 -254l-119 -207h-213z" />
<glyph unicode="y" horiz-adv-x="1005" d="M31 1198h213l114 -385l154 -555q43 219 150 567l116 373h203l-375 -1200l-71 -227q-57 -180 -162 -229q-43 -21 -98 -21q-77 0 -177 41l35 166q37 -14 65.5 -20.5t61.5 -0.5t58.5 36t43.5 85l50 170z" />
<glyph unicode="z" horiz-adv-x="995" d="M63 0v31l590 989h-534v178h823v-35l-582 -981h594v-182h-891z" />
<glyph unicode="{" horiz-adv-x="655" d="M84 696v129q154 0 154 209v369q0 188 87 265t283 40v-137q-119 23 -160.5 -13t-41.5 -161v-363q0 -59 -2.5 -89t-14.5 -74t-44 -69.5t-83 -39.5q53 -14 85 -41t44 -71t14.5 -72.5t2.5 -88.5v-446q0 -123 38.5 -154.5t161.5 -15.5l2 -141l-2 -2q-203 -33 -286.5 41.5 t-83.5 263.5v452q0 209 -154 209z" />
<glyph unicode="|" horiz-adv-x="538" d="M186 -211v1800h166v-1800h-166z" />
<glyph unicode="}" horiz-adv-x="694" d="M72 -268l2 141q123 -16 161.5 15.5t38.5 154.5v446q0 59 2.5 88t14.5 73t44 71t85 41q-51 14 -83 39.5t-44 69.5t-14.5 74t-2.5 89v363q0 125 -41.5 160.5t-160.5 13.5v137q197 37 283.5 -40t86.5 -265v-369q0 -209 154 -209v-129q-154 0 -154 -209v-452 q0 -188 -83.5 -263t-286.5 -42z" />
<glyph unicode="~" horiz-adv-x="1323" d="M156 557q47 139 160.5 200.5t240.5 0.5l260 -127q154 -78 230 108l127 -49q-51 -145 -151.5 -198.5t-248.5 6.5l-264 129q-47 14 -88 18t-81 -29.5t-69 -107.5z" />
<glyph unicode="&#xad;" horiz-adv-x="1009" d="M125 526v179h770v-179h-770z" />
<glyph unicode="&#x401;" horiz-adv-x="1042" d="M119 0v1581h796v-172h-602v-475h545v-182h-545v-570h654v-182h-848zM197 1817q0 72 59 101.5t117.5 0.5t58.5 -102q0 -70 -58.5 -99.5t-117.5 -2t-59 101.5zM643 1817q0 72 59.5 101.5t118 0.5t58.5 -102q0 -70 -58.5 -99.5t-118 -2t-59.5 101.5z" />
<glyph unicode="&#x402;" horiz-adv-x="1335" d="M16 1405v180h850v-180h-327v-387q84 123 272 123q221 0 316.5 -116t95.5 -347v-354q0 -188 -86 -268.5t-271 -63.5v174q35 -6 63.5 -2t51.5 16.5t35 48t12 95.5v350q0 160 -54 219t-190 59q-121 0 -181 -60.5t-64 -195.5v-696h-195v1405h-328z" />
<glyph unicode="&#x403;" horiz-adv-x="907" d="M143 0v1581h715v-182h-514v-1399h-201zM434 1690v10l109 260h188v-6l-145 -264h-152z" />
<glyph unicode="&#x404;" horiz-adv-x="1249" d="M121 528v539q0 139 19.5 231.5t73.5 165t155.5 105.5t257.5 33q152 0 249 -28t150 -90.5t73.5 -142t22.5 -202.5h-190q-2 156 -60.5 217t-244.5 61q-197 0 -252.5 -72.5t-55.5 -275.5v-172h463v-180h-463v-191q0 -201 57.5 -275.5t250.5 -74.5q197 0 253 59.5t56 249.5 h186q0 -88 -5 -144t-21.5 -118.5t-49 -99.5t-86 -70t-137.5 -47t-196 -14q-115 0 -199 14t-139.5 48t-89 74t-51 107.5t-22.5 131t-5 161.5z" />
<glyph unicode="&#x405;" horiz-adv-x="1161" d="M90 418h211q8 -111 69.5 -173.5t202.5 -62.5h39q152 0 204 67.5t52 217.5q0 90 -23.5 145.5t-83 82t-101.5 33.5t-138 15q-14 2 -20 2q-76 6 -140.5 28t-125 67t-95.5 123.5t-35 187.5q0 225 111 334.5t354 109.5q229 0 337 -102t118 -303h-203q-8 109 -61 165t-191 56 q-154 0 -208 -63.5t-54 -194.5q0 -33 6.5 -59.5t14.5 -47t26.5 -38t31.5 -28.5t42 -20.5t44 -14.5t53 -10t53.5 -7t59.5 -6t58 -7q371 -37 371 -438q0 -256 -105.5 -370.5t-349.5 -114.5h-39q-463 0 -485 426z" />
<glyph unicode="&#x406;" horiz-adv-x="485" d="M143 -2v1577h199v-1577h-199z" />
<glyph unicode="&#x407;" horiz-adv-x="485" d="M-72 1782q0 53 37 83.5t81 31.5t81 -29.5t37 -85.5q0 -70 -59.5 -99.5t-118 -2t-58.5 101.5zM143 -2v1577h199v-1577h-199zM326 1782q0 53 36.5 83.5t80.5 31.5t81 -29.5t37 -85.5q0 -70 -59.5 -99.5t-117.5 -2t-58 101.5z" />
<glyph unicode="&#x408;" horiz-adv-x="989" d="M16 473h185q0 -166 50 -232.5t193 -66.5q145 0 185.5 72.5t40.5 275.5v1059h196v-1057q0 -141 -16 -232t-60.5 -164t-130.5 -106.5t-219 -33.5q-246 0 -335 118.5t-89 366.5z" />
<glyph unicode="&#x409;" horiz-adv-x="1705" d="M10 -6v188q59 -4 104.5 9.5t75 36t50 63.5t32 82t16.5 102.5t6 112.5t1 125v47l6 821h703v-635h170q242 0 344 -106.5t102 -350.5v-59q0 -227 -114.5 -328.5t-331.5 -101.5h-365v1399h-315l-7 -643q0 -84 -1 -134.5t-4 -123t-10 -115.5t-19.5 -100.5t-31 -90t-44 -71.5 t-60 -60.5t-78.5 -40t-101.5 -24.5t-127.5 -2zM1004 184h170q141 0 196 46t55 200v59q0 156 -59 216.5t-192 60.5h-170v-582z" />
<glyph unicode="&#x40a;" horiz-adv-x="1669" d="M143 -2v1577h199v-635h430v647h195v-641h170q242 0 344 -106.5t102 -350.5v-59q0 -227 -114.5 -328.5t-331.5 -101.5h-365v760h-430v-762h-199zM967 184h170q141 0 196.5 46t55.5 200v59q0 156 -59.5 216.5t-192.5 60.5h-170v-582z" />
<glyph unicode="&#x40b;" horiz-adv-x="1335" d="M16 1405v180h850v-180h-327v-387q84 123 272 123q221 0 316.5 -116t95.5 -347v-678h-195v674q0 160 -54 219t-190 59q-121 0 -181 -60.5t-64 -195.5v-696h-195v1405h-328z" />
<glyph unicode="&#x40c;" horiz-adv-x="1140" d="M133 0v1581h195v-696h75q51 0 91.5 23.5t72 75.5t48 91t42.5 115q31 86 47.5 129t54.5 108.5t75.5 94t101 47t143.5 8.5l-12 -180q-39 4 -71.5 -6.5t-51 -27.5t-37 -51t-26 -56.5t-20.5 -66.5t-19 -63q-47 -135 -93.5 -218t-117.5 -132l502 -776h-240l-442 705h-123v-705 h-195zM498 1669v10l108 260h189v-6l-146 -264h-151z" />
<glyph unicode="&#x40e;" horiz-adv-x="985" d="M25 1581h221l149 -477l111 -377q45 193 108 387l152 467h213l-381 -1114l-70 -227q-57 -180 -162.5 -230.5t-277.5 21.5l35 164q51 -20 87 -23.5t75 25t61 100.5l51 172zM190 1962h160q2 -70 40 -95.5t110 -25.5q70 0 105.5 25.5t37.5 95.5h164q-2 -270 -307 -270 q-307 0 -310 270z" />
<glyph unicode="&#x40f;" horiz-adv-x="1210" d="M143 0v1581h195v-1395h532v1395h199v-1581h-364v-217h-191v217h-371z" />
<glyph unicode="&#x410;" horiz-adv-x="1073" d="M18 0l420 1575h199l418 -1575h-201l-80 293h-473l-80 -293h-203zM350 477h373l-82 336l-104 508l-107 -514z" />
<glyph unicode="&#x411;" horiz-adv-x="1116" d="M123 0v1581h786v-182h-585v-447h208q246 0 378 -119.5t132 -361.5q0 -471 -510 -471h-409zM324 186h213q168 0 238.5 73t70.5 212q0 141 -70.5 218t-238.5 77h-213v-580z" />
<glyph unicode="&#x412;" horiz-adv-x="1118" d="M123 0v1581h395q420 0 426 -412q2 -102 -44 -183t-142 -120q283 -59 286 -381q0 -485 -512 -485h-409zM317 930h177q133 0 193.5 69.5t60.5 169.5q0 123 -53.5 176.5t-176.5 53.5h-201v-469zM322 186h215q170 0 238.5 76t68.5 221q0 143 -76 200.5t-225 57.5h-221v-555z " />
<glyph unicode="&#x413;" horiz-adv-x="907" d="M143 0v1581h715v-182h-514v-1399h-201z" />
<glyph unicode="&#x414;" horiz-adv-x="1271" d="M10 184h90q109 92 145 229.5t40 325.5l30 844h768v-1399h140v-411h-189v227h-837v-227h-187v411zM330 184h551v1215h-383l-15 -660q-4 -178 -34.5 -313.5t-118.5 -241.5z" />
<glyph unicode="&#x415;" horiz-adv-x="1067" d="M143 0v1581h797v-172h-602v-475h545v-182h-545v-570h653v-182h-848z" />
<glyph unicode="&#x416;" horiz-adv-x="1708" d="M10 0l490 784q-43 33 -73 69t-54.5 91t-34.5 81t-35 103q-6 18 -22.5 75t-28.5 81.5t-34.5 60t-57.5 48t-82 6.5l-12 182q78 10 141 -9.5t101 -49t75 -93t54.5 -108.5t45.5 -129q59 -174 92 -221q55 -84 146 -84h43v696h190v-696h43q47 0 84 22.5t61.5 62.5t43 86 t37.5 101q6 23 10 33q31 86 47 129t54 108.5t76 94t101.5 48t141.5 9.5l-13 -182q-47 6 -81.5 -6.5t-57 -48t-35 -60t-29 -81t-22.5 -75.5q-31 -94 -47 -135t-56 -103.5t-95 -105.5l489 -784h-238l-424 707h-90v-707h-190v707h-90l-424 -707h-240z" />
<glyph unicode="&#x417;" horiz-adv-x="1056" d="M80 442h186q0 -139 56.5 -202.5t183.5 -63.5q133 0 200.5 66.5t67.5 222.5q0 158 -80 228.5t-205 70.5h-110v172h110q102 4 185.5 67.5t83.5 190.5q0 229 -236 229q-242 0 -241 -264h-185q0 432 430 436q186 0 303 -103t117 -300q0 -104 -50 -200.5t-161 -141.5 q123 -47 179.5 -134t56.5 -249q0 -227 -118 -353t-345 -126q-231 0 -329.5 110.5t-98.5 343.5z" />
<glyph unicode="&#x418;" horiz-adv-x="1171" d="M143 0v1583h195v-674l-29 -538l537 1212h184v-1583h-194v618l10 519l-520 -1137h-183z" />
<glyph unicode="&#x419;" horiz-adv-x="1171" d="M143 0h183l520 1137l-10 -519v-618h194v1583h-184l-537 -1212l29 538v674h-195v-1583zM307 1944h160q2 -70 40 -95.5t109 -25.5q70 0 106 25.5t38 95.5h164q-3 -271 -308 -271q-307 0 -309 271z" />
<glyph unicode="&#x41a;" horiz-adv-x="1140" d="M133 0v1581h195v-696h75q51 0 91.5 23.5t72 75.5t48 91t42.5 115q31 86 47.5 129t54.5 108.5t75.5 94t101 47t143.5 8.5l-12 -180q-39 4 -71.5 -6.5t-51 -27.5t-37 -51t-26 -56.5t-20.5 -66.5t-19 -63q-47 -135 -93.5 -218t-117.5 -132l502 -776h-240l-442 705h-123v-705 h-195z" />
<glyph unicode="&#x41b;" horiz-adv-x="1261" d="M10 -6v188q59 -4 104.5 9.5t75 36t50 63.5t32 82t16.5 102.5t6 112.5t1 125v47l6 821h819v-1581h-196v1397h-430l-7 -641q0 -84 -1 -134.5t-4 -123t-10 -115.5t-19.5 -100.5t-31 -90t-44 -71.5t-60 -60.5t-78.5 -40t-101.5 -24.5t-127.5 -2z" />
<glyph unicode="&#x41c;" horiz-adv-x="1288" d="M143 0v1581h224l278 -868l279 868h223v-1581h-195v743l29 433l-289 -887h-94l-289 887l29 -433v-743h-195z" />
<glyph unicode="&#x41d;" horiz-adv-x="1206" d="M143 -2v1577h199v-727h528v727h195v-1575h-195v662h-528v-664h-199z" />
<glyph unicode="&#x41e;" horiz-adv-x="1271" d="M121 518v551q0 139 19.5 230.5t73.5 164t156.5 105.5t262.5 33t262 -33t156.5 -105.5t74 -164t19.5 -230.5v-551q0 -139 -19.5 -230t-74 -164t-156.5 -105.5t-262 -32.5t-262.5 32.5t-156.5 105.5t-73.5 164t-19.5 230zM317 516q0 -106 8.5 -161.5t39 -103.5t94 -65.5 t174 -17.5t174 17.5t94.5 65.5t39 103.5t8 161.5v555q0 86 -4 134t-21.5 96.5t-51 71t-92 36.5t-146.5 14t-146.5 -14t-92.5 -36.5t-51 -71t-21.5 -96.5t-4.5 -134v-555z" />
<glyph unicode="&#x41f;" horiz-adv-x="1210" d="M143 0v1581h926v-1581h-195v1395h-532v-1395h-199z" />
<glyph unicode="&#x420;" d="M143 -2v1581l424 2q219 0 334 -100.5t115 -329.5v-172q0 -246 -103.5 -351.5t-345.5 -105.5h-229v-524h-195zM338 709h229q137 0 195.5 56t58.5 214v172q0 152 -54.5 195t-199.5 51h-229v-688z" />
<glyph unicode="&#x421;" horiz-adv-x="1208" d="M121 524v537q0 139 19.5 230t73.5 164t154.5 105.5t256.5 32.5q152 0 249 -27.5t150 -89t72.5 -140t21.5 -201.5h-190q-2 154 -59.5 215t-243.5 61q-102 0 -164 -17.5t-93.5 -64.5t-41 -105.5t-9.5 -160.5v-541q0 -199 58.5 -273.5t249.5 -74.5q197 0 252 59.5t55 249.5 h186q0 -88 -5 -144t-20.5 -118.5t-48 -99.5t-87 -70t-137.5 -47t-195 -14q-115 0 -198 14t-138.5 48t-89 74t-51 106.5t-22.5 131t-5 160.5z" />
<glyph unicode="&#x422;" horiz-adv-x="882" d="M16 1391v180h850v-180h-327v-1391h-195v1391h-328z" />
<glyph unicode="&#x423;" horiz-adv-x="985" d="M25 1581h221l149 -477l111 -377q45 193 108 387l152 467h213l-381 -1114l-70 -227q-57 -180 -162.5 -230.5t-277.5 21.5l35 164q51 -20 87 -23.5t75 25t61 100.5l51 172z" />
<glyph unicode="&#x424;" horiz-adv-x="1675" d="M121 631v364q0 231 115.5 333t336.5 102l164 -3v154h195v-154l166 3q219 0 334.5 -101.5t115.5 -333.5v-364q0 -244 -103.5 -349.5t-346.5 -105.5h-166v-176h-195v176h-164q-244 0 -348 105.5t-104 349.5zM315 631q0 -156 59.5 -212.5t198.5 -56.5h164v883h-164 q-150 -8 -204 -51t-54 -199v-364zM932 362h166q137 0 196.5 56.5t59.5 212.5v364q0 154 -54.5 198t-201.5 52h-166v-883z" />
<glyph unicode="&#x425;" horiz-adv-x="999" d="M18 -2l347 797l-347 786h213l131 -299l138 -354l137 352l131 301h213l-346 -786l346 -797h-213l-86 197l-182 462l-181 -460l-88 -199h-213z" />
<glyph unicode="&#x426;" horiz-adv-x="1249" d="M143 0v1581h195v-1397h512v1397h201v-1397h147v-409h-188v225h-867z" />
<glyph unicode="&#x427;" horiz-adv-x="1196" d="M127 1053v528h197v-526q0 -156 64.5 -217.5t201.5 -61.5q152 0 268 92v713h197v-1581h-197v674q-125 -86 -297 -86q-434 0 -434 465z" />
<glyph unicode="&#x428;" horiz-adv-x="1640" d="M143 0v1581h197v-1395h387v1395h188v-1395h385v1395h199v-1581h-1356z" />
<glyph unicode="&#x429;" horiz-adv-x="1695" d="M143 0v1581h195v-1395h387v1395h188v-1395h387v1395h197v-1395h148v-409h-187v223h-1315z" />
<glyph unicode="&#x42a;" horiz-adv-x="1234" d="M-4 1399v182h475v-520h229q242 0 345.5 -106.5t103.5 -350.5v-174q0 -227 -115.5 -328.5t-333.5 -101.5h-426v1399h-278zM471 184h229q141 0 197.5 46t56.5 200v174q0 156 -59 213t-195 57h-229v-690z" />
<glyph unicode="&#x42b;" horiz-adv-x="1579" d="M143 0v1581h195v-520h231q242 0 344.5 -106.5t102.5 -350.5v-174q0 -227 -115 -328.5t-332 -101.5h-426zM338 184h231q141 0 196.5 46t55.5 200v174q0 156 -58 213t-194 57h-231v-690zM1249 0v1581h195v-1581h-195z" />
<glyph unicode="&#x42c;" d="M143 0v1587h195v-526h231q242 0 344.5 -106.5t102.5 -350.5v-174q0 -227 -115 -328.5t-332 -101.5h-426zM338 184h231q141 0 196.5 46t55.5 200v174q0 156 -58 213t-194 57h-231v-690z" />
<glyph unicode="&#x42d;" horiz-adv-x="1249" d="M121 485h186q0 -190 56.5 -249.5t252.5 -59.5q193 0 250.5 75t57.5 275v191h-463v180h463v172q0 203 -55.5 275.5t-252.5 72.5q-186 0 -244.5 -61t-60.5 -217h-190q2 123 22.5 202.5t73.5 142t150.5 90.5t248.5 28q156 0 257.5 -33t155.5 -105.5t73.5 -165t19.5 -231.5 v-539q0 -98 -5 -161.5t-22.5 -131t-51 -107.5t-89 -74t-139.5 -48t-199 -14q-113 0 -196.5 14t-137 47t-86 70t-49 99.5t-21.5 118.5t-5 144z" />
<glyph unicode="&#x42e;" horiz-adv-x="1693" d="M143 0v1581h201v-729h254v223q0 137 18.5 227.5t68.5 165t148.5 108.5t248 34t247.5 -34t149.5 -107.5t70 -165t18.5 -228.5v-553q0 -137 -18.5 -228t-70 -164t-148.5 -106.5t-248.5 -33.5t-248 33.5t-147.5 106.5t-69.5 164t-18.5 228v148h-254v-670h-201zM795 520 q0 -104 7 -158.5t34.5 -103.5t86 -67.5t159 -18.5t158.5 18.5t87 67.5t36 103.5t7 158.5v557q0 104 -7 159.5t-36 106t-87 69t-159 18.5q-80 0 -133 -14.5t-83.5 -38t-46 -72t-19.5 -96.5t-4 -132v-557z" />
<glyph unicode="&#x42f;" horiz-adv-x="1157" d="M92 2l346 598q-168 35 -233.5 149t-65.5 298v102q0 229 116 330.5t335 101.5h426v-1581h-197v590h-178l-319 -588h-230zM334 1047q0 -156 59.5 -213.5t196.5 -57.5h229v619h-229q-78 -6 -116 -13.5t-76 -32t-51 -72.5t-13 -128v-102z" />
<glyph unicode="&#x430;" horiz-adv-x="1073" d="M90 276q-14 158 85 264.5t284 133.5q92 14 289 18v117q0 111 -50.5 167t-177.5 56q-92 0 -141 -44t-47 -157h-191q-6 195 92.5 287t292.5 92q205 0 311.5 -95t106.5 -306v-809h-176l-16 162q-35 -72 -118 -122t-188 -50q-328 0 -356 286zM287 301q10 -125 180 -125 q275 0 285 354q-184 0 -277 -20q-209 -45 -188 -209z" />
<glyph unicode="&#x431;" horiz-adv-x="1099" d="M102 434v617q0 135 16.5 220t64.5 154.5t139.5 104.5t234.5 45q68 6 97.5 10t77.5 19.5t75 42.5l119 -129q-20 -20 -42 -38t-38.5 -29t-43 -19.5t-39.5 -13.5t-47 -9t-44 -5t-53.5 -5t-53.5 -4q-80 -6 -130 -21.5t-78.5 -35t-42 -67.5t-15.5 -88t-2 -130q90 127 281 127 q221 0 320 -116t99 -345v-285q0 -246 -102 -350t-344 -104t-345.5 104t-103.5 350zM297 434q-2 -154 59.5 -211t194.5 -57q131 0 191.5 57.5t60.5 210.5v281q0 162 -58.5 220t-193.5 58q-119 0 -185.5 -59t-66.5 -209z" />
<glyph unicode="&#x432;" horiz-adv-x="1048" d="M113 0v1192h419q158 0 261.5 -78t103.5 -229q0 -90 -30.5 -145.5t-108.5 -90.5q96 -33 148 -108.5t52 -178.5q0 -362 -428 -362h-417zM303 715h234q78 0 123 40t45 111q0 74 -47.5 113t-125.5 39h-229v-303zM307 178h230q125 0 176 46t51 141q0 186 -225 186h-232v-373z " />
<glyph unicode="&#x433;" horiz-adv-x="798" d="M125 0v1192h635v-182h-445v-1010h-190z" />
<glyph unicode="&#x434;" horiz-adv-x="1153" d="M23 182h83q92 78 140 232q31 123 30 317l13 461h698v-1010h139v-405h-184v225h-735v-225h-184v405zM334 182h461v828h-316l-6 -279q0 -195 -43 -366q-28 -99 -96 -183z" />
<glyph unicode="&#x435;" d="M109 426v350q0 225 113.5 326.5t328.5 101.5q442 0 442 -428v-256h-692v-90q0 -154 57.5 -208t192.5 -54q250 0 250 180h188q0 -178 -105.5 -269t-332.5 -91q-240 0 -341 99t-101 339zM301 690h506v86q0 147 -64.5 201.5t-191.5 54.5t-188.5 -53t-61.5 -203v-86z" />
<glyph unicode="&#x436;" horiz-adv-x="1529" d="M16 0l396 606q-53 35 -89 94.5t-54.5 113.5t-40 103.5t-59.5 76t-97 18.5v178q117 10 190.5 -36t106 -118.5t58.5 -146.5t73 -127t125 -53h39v481h194v-481h39q76 0 123 53t72.5 127t58.5 146.5t105.5 118.5t189.5 36v-178q-72 10 -115 -34t-59.5 -108.5t-57 -142.5 t-106.5 -121l395 -606h-227l-340 530h-78v-530h-194v530h-82l-338 -530h-228z" />
<glyph unicode="&#x437;" horiz-adv-x="1005" d="M82 328h194q0 -111 49.5 -142.5t166.5 -31.5q98 0 162.5 48t64.5 144q0 111 -48 153t-161 42h-156v172h156q186 0 186 161q0 160 -207 160q-96 0 -147 -34.5t-51 -125.5h-189q0 332 390 332q176 0 287.5 -78.5t111.5 -248.5q0 -199 -150 -250q172 -57 172 -283 q0 -188 -113.5 -275t-310.5 -87q-213 0 -310 70.5t-97 273.5z" />
<glyph unicode="&#x438;" horiz-adv-x="1130" d="M119 0v1190h194v-860l494 860h211v-1190h-193v866l-497 -866h-209z" />
<glyph unicode="&#x439;" horiz-adv-x="1130" d="M119 0v1190h194v-860l494 860h211v-1190h-193v866l-497 -866h-209zM252 1589h166q2 -72 41 -98.5t114 -26.5q74 0 112 27t40 98h172q-7 -278 -324 -278q-319 0 -321 278z" />
<glyph unicode="&#x43a;" horiz-adv-x="1040" d="M115 0v1190h194v-481h66q78 0 127 54t78.5 129t66.5 148.5t115 119.5t196 34l-4 -178q-76 12 -123 -32t-67.5 -109.5t-65.5 -145.5t-108 -123l440 -606h-231l-385 532h-105v-532h-194z" />
<glyph unicode="&#x43b;" horiz-adv-x="1134" d="M53 -6v190q57 4 99.5 30t67 72t39.5 94t21.5 114.5t8.5 113.5t2 107v39l6 436h725v-1190h-197v1008h-333l-7 -256q-2 -92 -5 -152.5t-14 -147.5t-27.5 -143.5t-49.5 -121t-77 -102.5t-109.5 -63.5t-149.5 -27.5z" />
<glyph unicode="&#x43c;" horiz-adv-x="1277" d="M121 0v1190h246l161 -393l115 -299l117 299l160 393h245v-1190h-192v432l2 414l-266 -635h-131l-267 635l2 -414v-432h-192z" />
<glyph unicode="&#x43d;" horiz-adv-x="1118" d="M121 0v1190h194v-475h496v475h195v-1190h-195v535h-496v-535h-194z" />
<glyph unicode="&#x43e;" d="M102 436v342q0 229 116 331.5t333 102.5t332.5 -102t115.5 -332v-342q0 -244 -105 -350t-343 -106q-242 0 -345.5 105t-103.5 351zM297 436q0 -160 59.5 -223t194.5 -63q137 0 195.5 63t58.5 223v342q0 154 -60.5 207t-193.5 53t-193.5 -53t-60.5 -207v-342z" />
<glyph unicode="&#x43f;" horiz-adv-x="1118" d="M121 0v1190h885v-1190h-195v1008h-498v-1008h-192z" />
<glyph unicode="&#x440;" horiz-adv-x="1150" d="M135 -403v1601h164l25 -158q27 76 108.5 120t188.5 44q406 0 405 -432v-315q0 -465 -405 -465q-106 0 -174 21.5t-115 82.5v-499h-197zM332 451q0 -152 56 -211.5t189.5 -59.5t193.5 62.5t60 218.5v313q0 141 -56 194.5t-183 53.5q-131 -4 -195.5 -73.5t-64.5 -239.5 v-258z" />
<glyph unicode="&#x441;" horiz-adv-x="1081" d="M102 436v340q0 436 449 436q211 0 320.5 -90t117.5 -311l-184 -2q-6 133 -66.5 178t-187.5 45q-133 0 -193.5 -51t-60.5 -205v-340q0 -156 60.5 -213t193.5 -57q135 0 193.5 47.5t60.5 192.5h184q-2 -236 -102.5 -331t-336 -95t-342 107.5t-106.5 348.5z" />
<glyph unicode="&#x442;" horiz-adv-x="831" d="M10 1010v180h805v-180h-305v-1010h-195v1010h-305z" />
<glyph unicode="&#x443;" horiz-adv-x="1005" d="M31 1198h213l114 -385l154 -555q43 219 150 567l116 373h203l-375 -1200l-71 -227q-57 -180 -162 -229.5t-275 20.5l35 166q37 -14 65.5 -20.5t61.5 -0.5t58.5 36t43.5 85l50 170z" />
<glyph unicode="&#x444;" horiz-adv-x="1669" d="M102 453v282q0 207 90.5 336t286.5 127q184 -8 260 -104v495h193v-495q72 96 254 104q199 2 290 -127t91 -336v-282q0 -125 -37 -226.5t-126 -168t-218 -66.5q-176 0 -254 104v-495h-193v495q-82 -104 -260 -104q-129 0 -217 66.5t-124 168t-36 226.5zM295 455 q0 -145 54 -211t171 -66t168 62.5t51 203.5v299q0 133 -47 201t-172 68q-117 0 -171 -66.5t-54 -212.5v-278zM932 444q0 -143 50 -204.5t165 -61.5q117 0 171 65.5t54 211.5v278q0 147 -54 213t-171 66q-123 0 -169 -67.5t-46 -201.5v-299z" />
<glyph unicode="&#x445;" horiz-adv-x="972" d="M18 0l355 604l-342 590h219l112 -190l123 -238l127 240l111 188h213l-340 -588l360 -606h-219l-121 209l-133 252l-133 -254l-119 -207h-213z" />
<glyph unicode="&#x446;" horiz-adv-x="1173" d="M121 0v1190h194v-1008h480v1008h194v-1008h135v-407h-186v225h-817z" />
<glyph unicode="&#x447;" horiz-adv-x="1077" d="M90 856v334h193v-330q0 -158 55 -217t188 -59q123 0 182.5 63.5t61.5 204.5l2 338h193v-1190h-195v518q-84 -123 -272 -123q-219 0 -313.5 115t-94.5 346z" />
<glyph unicode="&#x448;" horiz-adv-x="1576" d="M121 0v1190h194v-1008h383v1008h189v-1008h383v1008h194v-1190h-1343z" />
<glyph unicode="&#x449;" horiz-adv-x="1650" d="M121 0v1190h196v-1008h383v1008h187v-1008h383v1008h196v-1008h136v-407h-187v225h-1294z" />
<glyph unicode="&#x44a;" horiz-adv-x="1208" d="M2 1014v176h487v-367h207q213 0 320.5 -96t107.5 -317q0 -227 -95 -318.5t-333 -91.5h-403v1014h-291zM489 178h207q137 0 185.5 52.5t48.5 179.5q0 133 -47 186t-187 53h-207v-471z" />
<glyph unicode="&#x44b;" horiz-adv-x="1472" d="M121 0v1190h196v-367h209q211 0 318.5 -96t107.5 -317q0 -227 -94 -318.5t-332 -91.5h-405zM317 178h209q135 0 183.5 52.5t48.5 179.5q0 133 -47 186t-185 53h-209v-471zM1163 0v1190h197v-1190h-197z" />
<glyph unicode="&#x44c;" horiz-adv-x="1024" d="M123 0v1190h196v-367h209q211 0 318.5 -96t107.5 -317q0 -227 -94 -318.5t-332 -91.5h-405zM319 178h209q135 0 183.5 52.5t48.5 179.5q0 133 -47 186t-185 53h-209v-471z" />
<glyph unicode="&#x44d;" horiz-adv-x="1083" d="M102 393h183q4 -137 61 -182t190.5 -45t194 57.5t60.5 208.5v80h-332v172h332v88q0 150 -60.5 201t-193.5 51q-127 0 -186.5 -43t-65.5 -168h-183q10 215 118 303t317 88q217 0 330.5 -102.5t113.5 -329.5v-340q0 -242 -105.5 -347t-338.5 -105q-231 0 -331 93t-104 320z " />
<glyph unicode="&#x44e;" horiz-adv-x="1482" d="M129 0v1190h190v-475h224v55q0 430 420 430q426 0 426 -430v-348q0 -428 -426 -428q-420 0 -420 428v110h-224v-532h-190zM735 422q0 -143 56.5 -198.5t171.5 -55.5q117 0 173 55.5t56 198.5v348q0 145 -56.5 200.5t-172.5 55.5q-115 0 -171.5 -55.5t-56.5 -200.5v-348z " />
<glyph unicode="&#x44f;" horiz-adv-x="1017" d="M51 0l281 461q-234 61 -234 323v82q0 168 99.5 246t267.5 78h440v-1190h-198v440h-175l-253 -440h-228zM293 788q0 -98 42 -134t142 -36h230v394h-230q-102 0 -143 -30t-41 -124v-70z" />
<glyph unicode="&#x451;" horiz-adv-x="1085" d="M109 426v350q0 225 113.5 326.5t328.5 101.5q442 0 442 -428v-256h-692v-90q0 -154 57.5 -208t192.5 -54q250 0 250 180h188q0 -178 -105.5 -269t-332.5 -91q-240 0 -341 99t-101 339zM260 1475q0 53 37 83.5t81 31.5t81 -29.5t37 -85.5q0 -70 -59.5 -99.5t-118 -2 t-58.5 101.5zM301 690h506v86q0 147 -64.5 201.5t-191.5 54.5t-188.5 -53t-61.5 -203v-86zM655 1475q0 72 59.5 101.5t118 0.5t58.5 -102q0 -70 -58.5 -99.5t-118 -2t-59.5 101.5z" />
<glyph unicode="&#x452;" horiz-adv-x="1126" d="M-12 1272v160h145v149h195v-149h268v-160h-266v-254q84 123 272 123q221 0 316.5 -116t95.5 -347v-682q0 -188 -86 -268t-271 -64v174q35 -6 64 -2t51.5 16.5t34.5 48.5t12 95v678q0 160 -54 219t-190 59q-121 0 -181 -60.5t-64 -195.5v-696h-195v1272h-147z" />
<glyph unicode="&#x453;" horiz-adv-x="798" d="M125 0v1192h635v-182h-445v-1010h-190zM389 1315v10l109 256h180v-6l-146 -260h-143z" />
<glyph unicode="&#x454;" horiz-adv-x="1083" d="M104 432v340q0 227 114 329.5t331 102.5q209 0 316.5 -88t117.5 -303h-182q-6 125 -65.5 168t-186.5 43q-133 0 -193.5 -51t-60.5 -201v-88h332v-172h-332v-80q0 -152 60.5 -209t193.5 -57t190.5 45t61.5 182h182q-4 -227 -103.5 -320t-330.5 -93q-233 0 -339 105 t-106 347z" />
<glyph unicode="&#x455;" horiz-adv-x="999" d="M78 371h196q14 -203 238 -203q109 0 169 51t60 139q0 41 -17 71t-39.5 45t-67 26.5t-75 14.5t-87.5 7q-367 27 -367 324q0 166 106.5 266t309.5 100q205 0 304 -91t95 -261h-186q0 176 -219 176q-215 0 -215 -190q0 -47 15 -77t49 -44t69 -19.5t90 -9.5q20 -2 31 -2 q70 -6 112.5 -13t104 -27.5t96.5 -54.5t60.5 -94.5t25.5 -144.5q0 -182 -115.5 -276t-308.5 -94q-420 0 -434 381z" />
<glyph unicode="&#x456;" horiz-adv-x="491" d="M129 1473q0 53 37 83.5t81 31.5t81 -29.5t37 -85.5q0 -70 -59.5 -100t-118 -2t-58.5 102zM147 0v1190h195v-1190h-195z" />
<glyph unicode="&#x457;" horiz-adv-x="571" d="M-12 1475q0 72 59 101.5t117.5 0.5t58.5 -102q0 -70 -58.5 -99.5t-117.5 -2t-59 101.5zM182 0v1190h195v-1190h-195zM354 1475q0 53 37 83.5t81 31.5t81 -29.5t37 -85.5q0 -70 -59.5 -99.5t-118 -2t-58.5 101.5z" />
<glyph unicode="&#x458;" horiz-adv-x="495" d="M2 -213q35 -6 63.5 -2t51 16.5t35 48t12.5 95.5v1243h190v-1243q0 -188 -85 -268t-267 -64v174zM141 1473q0 53 37 83.5t81 31.5t81 -29.5t37 -85.5q0 -70 -59.5 -100t-118 -2t-58.5 102z" />
<glyph unicode="&#x459;" horiz-adv-x="1597" d="M12 -6v190q66 -2 115 21.5t79 73t48 100.5t25.5 123.5t9.5 120t2 110.5v21l6 436h664v-422h141q213 0 319.5 -87t106.5 -298q0 -209 -95.5 -296t-330.5 -87h-338v1008h-272l-7 -256q-2 -106 -8 -182t-22.5 -173.5t-48 -163t-82 -125t-129 -88t-183.5 -26.5zM961 178h141 q135 0 183 43t48 160q0 109 -49 161t-182 52h-141v-416z" />
<glyph unicode="&#x45a;" horiz-adv-x="1544" d="M121 0v1190h194v-426h396v426h196v-422h142q215 0 320.5 -85t105.5 -300q0 -209 -95.5 -296t-330.5 -87h-338v584h-396v-584h-194zM907 178h142q135 0 183 43t48 160q0 119 -47 166t-184 47h-142v-416z" />
<glyph unicode="&#x45b;" horiz-adv-x="1126" d="M-12 1272v160h145v149h195v-149h268v-160h-266v-254q84 123 272 123q221 0 316.5 -116t95.5 -347v-678h-195v674q0 160 -54 219t-190 59q-121 0 -181 -60.5t-64 -195.5v-696h-195v1272h-147z" />
<glyph unicode="&#x45c;" horiz-adv-x="1040" d="M115 0v1190h194v-481h66q78 0 127 54t78.5 129t66.5 148.5t115 119.5t196 34l-4 -178q-76 12 -123 -32t-67.5 -109.5t-65.5 -145.5t-108 -123l440 -606h-231l-385 532h-105v-532h-194zM424 1319v10l108 260h189v-6l-146 -264h-151z" />
<glyph unicode="&#x45e;" horiz-adv-x="1005" d="M31 1198h213l114 -385l154 -555q43 219 150 567l116 373h203l-375 -1200l-71 -227q-57 -180 -162 -229.5t-275 20.5l35 166q37 -14 65.5 -20.5t61.5 -0.5t58.5 36t43.5 85l50 170zM197 1579h159q2 -70 40 -95.5t110 -25.5q70 0 105.5 25.5t37.5 95.5h164 q-2 -270 -307 -270q-307 0 -309 270z" />
<glyph unicode="&#x45f;" horiz-adv-x="1118" d="M121 0v1190h194v-1008h498v1008h193v-1190h-347v-203h-186v203h-352z" />
<glyph unicode="&#x490;" horiz-adv-x="907" d="M143 0v1581h529v219h186v-401h-514v-1399h-201z" />
<glyph unicode="&#x491;" horiz-adv-x="798" d="M125 0v1192h463v176h172v-358h-445v-1010h-190z" />
<glyph unicode="&#x2000;" horiz-adv-x="981" />
<glyph unicode="&#x2001;" horiz-adv-x="1962" />
<glyph unicode="&#x2002;" horiz-adv-x="981" />
<glyph unicode="&#x2003;" horiz-adv-x="1962" />
<glyph unicode="&#x2004;" horiz-adv-x="654" />
<glyph unicode="&#x2005;" horiz-adv-x="490" />
<glyph unicode="&#x2006;" horiz-adv-x="327" />
<glyph unicode="&#x2007;" horiz-adv-x="327" />
<glyph unicode="&#x2008;" horiz-adv-x="245" />
<glyph unicode="&#x2009;" horiz-adv-x="392" />
<glyph unicode="&#x200a;" horiz-adv-x="109" />
<glyph unicode="&#x2010;" horiz-adv-x="1009" d="M125 526v179h770v-179h-770z" />
<glyph unicode="&#x2011;" horiz-adv-x="1009" d="M125 526v179h770v-179h-770z" />
<glyph unicode="&#x2012;" horiz-adv-x="1009" d="M125 526v179h770v-179h-770z" />
<glyph unicode="&#x2013;" horiz-adv-x="1263" d="M125 526v179h1024v-179h-1024z" />
<glyph unicode="&#x2014;" horiz-adv-x="2287" d="M125 526v179h2048v-179h-2048z" />
<glyph unicode="&#x202f;" horiz-adv-x="392" />
<glyph unicode="&#x205f;" horiz-adv-x="490" />
<glyph unicode="&#x25fc;" horiz-adv-x="1198" d="M0 0v1198h1198v-1198h-1198z" />
</font>
</defs>
</svg>
